<?xml version="1.0" encoding="UTF-8"?>
<!DOCTYPE svg PUBLIC "-//W3C//DTD SVG 1.1//EN" "http://www.w3.org/Graphics/SVG/1.1/DTD/svg11.dtd">
<svg xmlns="http://www.w3.org/2000/svg" version="1.1" width="100px" height="100px" style="shape-rendering:geometricPrecision; text-rendering:geometricPrecision; image-rendering:optimizeQuality; fill-rule:evenodd; clip-rule:evenodd" xmlns:xlink="http://www.w3.org/1999/xlink">
<g><path style="opacity:0.004" fill="#fefffe" d="M 44.5,-0.5 C 44.8333,-0.5 45.1667,-0.5 45.5,-0.5C 45.1667,19.5 44.8333,19.5 44.5,-0.5 Z"/></g>
<g><path style="opacity:0.895" fill="#fefefe" d="M 46.5,-0.5 C 56.8333,-0.5 67.1667,-0.5 77.5,-0.5C 77.5,4.83333 77.5,10.1667 77.5,15.5C 67.1667,15.5 56.8333,15.5 46.5,15.5C 46.5,10.1667 46.5,4.83333 46.5,-0.5 Z"/></g>
<g><path style="opacity:0.008" fill="#fefefe" d="M 78.5,-0.5 C 78.8333,-0.5 79.1667,-0.5 79.5,-0.5C 79.1667,19.5 78.8333,19.5 78.5,-0.5 Z"/></g>
<g><path style="opacity:0.008" fill="#f25a79" d="M -0.5,3.5 C -0.5,3.16667 -0.5,2.83333 -0.5,2.5C 14.1667,2.83333 14.1667,3.16667 -0.5,3.5 Z"/></g>
<g><path style="opacity:0.008" fill="#f25b78" d="M 11.5,3.5 C 12.8333,4.16667 12.8333,4.16667 11.5,3.5 Z"/></g>
<g><path style="opacity:0.841" fill="#f25b79" d="M -0.5,4.5 C 4.39994,4.03277 9.0666,4.69944 13.5,6.5C 13.9925,8.81853 14.9925,10.8185 16.5,12.5C 16.4021,14.5529 17.0687,16.2196 18.5,17.5C 18.369,18.2389 18.5357,18.9056 19,19.5C 43.7777,18.8099 68.611,18.1433 93.5,17.5C 95.2073,17.7284 96.874,18.0617 98.5,18.5C 98.5,19.1667 98.8333,19.5 99.5,19.5C 99.5,21.5 99.5,23.5 99.5,25.5C 98.596,26.209 98.2627,27.209 98.5,28.5C 97.596,29.209 97.2627,30.209 97.5,31.5C 96.596,32.209 96.2627,33.209 96.5,34.5C 95.596,35.209 95.2627,36.209 95.5,37.5C 94.596,38.209 94.2627,39.209 94.5,40.5C 93.596,41.209 93.2627,42.209 93.5,43.5C 92.596,44.209 92.2627,45.209 92.5,46.5C 90.3987,49.7966 89.0653,53.4632 88.5,57.5C 87.596,58.209 87.2627,59.209 87.5,60.5C 86.8333,60.5 86.5,60.8333 86.5,61.5C 85.8333,61.5 85.5,61.8333 85.5,62.5C 69.4416,62.057 53.4416,62.7237 37.5,64.5C 37.6236,65.1067 37.9569,65.44 38.5,65.5C 38.3284,66.4916 38.6618,67.1583 39.5,67.5C 39.4208,68.9305 39.7542,70.2638 40.5,71.5C 53.5029,72.6873 66.5029,72.6873 79.5,71.5C 79.5,74.1667 79.5,76.8333 79.5,79.5C 65.5,79.5 51.5,79.5 37.5,79.5C 36.8333,78.1667 35.8333,77.1667 34.5,76.5C 34.2041,74.597 33.5375,72.9303 32.5,71.5C 32.0652,68.8427 31.0652,66.5093 29.5,64.5C 29.0652,61.8427 28.0652,59.5093 26.5,57.5C 26.2041,55.597 25.5375,53.9303 24.5,52.5C 24.0652,49.8427 23.0652,47.5093 21.5,45.5C 21.2041,43.597 20.5375,41.9303 19.5,40.5C 19.0652,37.8427 18.0652,35.5093 16.5,33.5C 16.2041,31.597 15.5375,29.9303 14.5,28.5C 13.7362,25.9823 12.7362,23.649 11.5,21.5C 11.0652,18.8427 10.0652,16.5093 8.5,14.5C 8.5,13.5 8.5,12.5 8.5,11.5C 5.5,11.5 2.5,11.5 -0.5,11.5C -0.5,9.16667 -0.5,6.83333 -0.5,4.5 Z M 24.5,29.5 C 24.1667,26.8333 23.8333,26.8333 23.5,29.5C 22.1522,28.4732 21.6522,27.1398 22,25.5C 26.0866,26.2488 30.2533,26.2488 34.5,25.5C 34.6932,29.449 35.1932,29.449 36,25.5C 36.8215,28.1168 37.3215,30.7835 37.5,33.5C 33.1539,33.6657 28.8206,33.499 24.5,33C 28.5408,32.8265 32.5408,32.3265 36.5,31.5C 32.4416,32.1338 28.4416,31.4672 24.5,29.5 Z M 54.5,32.5 C 53.5,32.1667 52.8333,31.5 52.5,30.5C 50.0971,30.448 47.7638,30.7814 45.5,31.5C 45.1667,32.5 44.5,33.1667 43.5,33.5C 41.5176,31.403 40.5176,28.7363 40.5,25.5C 45.1667,25.5 49.8333,25.5 54.5,25.5C 54.5,27.8333 54.5,30.1667 54.5,32.5 Z M 71.5,30.5 C 71.5,29.1667 71.5,27.8333 71.5,26.5C 67.5,26.5 63.5,26.5 59.5,26.5C 59.5,27.5 59.5,28.5 59.5,29.5C 61.1667,29.5 62.8333,29.5 64.5,29.5C 64.5,29.8333 64.5,30.1667 64.5,30.5C 62.5,30.5 60.5,30.5 58.5,30.5C 58.5,28.8333 58.5,27.1667 58.5,25.5C 63.1667,25.5 67.8333,25.5 72.5,25.5C 72.7845,27.4147 72.4511,29.0813 71.5,30.5 Z M 89.5,29.5 C 89.5875,32.5983 89.0875,32.9316 88,30.5C 84.5065,32.377 80.6732,33.0436 76.5,32.5C 76.5,30.1667 76.5,27.8333 76.5,25.5C 81.5111,25.3341 86.5111,25.5007 91.5,26C 90.9152,27.3024 90.2485,28.469 89.5,29.5 Z M 70.5,30.5 C 70.8333,30.5 71.1667,30.5 71.5,30.5C 71.5,31.5 71.5,32.5 71.5,33.5C 70.1667,33.5 68.8333,33.5 67.5,33.5C 66.6618,33.1583 66.3284,32.4916 66.5,31.5C 66.9382,31.5654 67.2716,31.3988 67.5,31C 66.7562,29.9614 65.7562,29.4614 64.5,29.5C 63.3915,28.71 62.0581,28.21 60.5,28C 63.8168,27.5017 67.1501,27.335 70.5,27.5C 70.5,28.5 70.5,29.5 70.5,30.5 Z M 85.5,41.5 C 82.3157,43.4136 78.649,44.0803 74.5,43.5C 74.5,41.5 74.5,39.5 74.5,37.5C 78.7675,37.797 82.9341,37.4637 87,36.5C 87.2027,38.3908 86.7027,40.0575 85.5,41.5 Z M 29.5,43.5 C 32.5719,43.8174 35.5719,43.4841 38.5,42.5C 35.675,42.75 32.675,42.4167 29.5,41.5C 31.6581,39.78 34.3248,38.9467 37.5,39C 33.8333,38.6667 30.1667,38.3333 26.5,38C 30.4862,37.5012 34.4862,37.3345 38.5,37.5C 38.9926,39.8056 39.3259,42.139 39.5,44.5C 35.9581,44.8128 32.6248,44.4794 29.5,43.5 Z M 68.5,37.5 C 70.3079,38.9179 70.9746,40.9179 70.5,43.5C 69.0413,43.4326 67.7079,43.7659 66.5,44.5C 66.6596,42.847 67.3263,41.5137 68.5,40.5C 68.5,39.5 68.5,38.5 68.5,37.5 Z M 58.5,51.5 C 59.1667,51.1667 59.8333,50.8333 60.5,50.5C 60.8333,49.5 61.5,48.8333 62.5,48.5C 64.7925,48.7564 66.9592,48.4231 69,47.5C 68.7446,50.0816 68.578,52.7482 68.5,55.5C 65.1501,55.665 61.8168,55.4983 58.5,55C 59.6843,53.8545 59.6843,52.6879 58.5,51.5 Z M 73.5,51.5 C 73.3433,50.1266 73.51,48.7932 74,47.5C 77.0707,48.1381 80.2374,48.1381 83.5,47.5C 83.2588,54.4961 79.5922,57.1627 72.5,55.5C 72.2322,53.901 72.5655,52.5676 73.5,51.5 Z M 40.5,51.5 C 41.4345,52.5676 41.7678,53.901 41.5,55.5C 38.7892,55.8151 36.4559,55.1484 34.5,53.5C 34.1667,50.8333 33.8333,50.8333 33.5,53.5C 32.596,52.791 32.2627,51.791 32.5,50.5C 31.9569,50.44 31.6236,50.1067 31.5,49.5C 34.4281,48.5159 37.4281,48.1826 40.5,48.5C 40.5,49.5 40.5,50.5 40.5,51.5 Z M 48.5,48.5 C 49.5,48.8333 50.1667,49.5 50.5,50.5C 49.8333,50.5 49.1667,50.5 48.5,50.5C 47.3915,49.71 46.0581,49.21 44.5,49C 45.7932,48.51 47.1266,48.3433 48.5,48.5 Z M 54.5,53.5 C 54.8333,53.5 55.1667,53.5 55.5,53.5C 52.6627,55.4023 49.3293,56.069 45.5,55.5C 45.6636,49.8333 45.9969,49.5 46.5,54.5C 49.3854,54.8064 52.0521,54.4731 54.5,53.5 Z M 48.5,50.5 C 49.2905,51.4013 50.2905,52.0679 51.5,52.5C 50.4324,53.4345 49.099,53.7678 47.5,53.5C 47.2627,52.209 47.596,51.209 48.5,50.5 Z"/></g>
<g><path style="opacity:0.008" fill="#f05c78" d="M 14.5,6.5 C 13.8333,5.16667 13.8333,5.16667 14.5,6.5 Z"/></g>
<g><path style="opacity:0.008" fill="#f25b79" d="M 14.5,6.5 C 15.8333,7.16667 15.8333,7.16667 14.5,6.5 Z"/></g>
<g><path style="opacity:0.01" fill="#f25b79" d="M 16.5,12.5 C 16.369,11.7611 16.5357,11.0944 17,10.5C 17.6917,11.4368 17.525,12.1034 16.5,12.5 Z"/></g>
<g><path style="opacity:0.01" fill="#f25c7a" d="M 7.5,14.5 C 5.91416,13.8519 4.24749,13.3519 2.5,13C 3.33333,12.8333 4.16667,12.6667 5,12.5C 6.37561,12.6842 7.20894,13.3509 7.5,14.5 Z"/></g>
<g><path style="opacity:0.012" fill="#f15b78" d="M 17.5,13.5 C 18.8333,14.1667 18.8333,14.1667 17.5,13.5 Z"/></g>
<g><path style="opacity:0.008" fill="#f25b7a" d="M 7.5,14.5 C 7.83333,14.5 8.16667,14.5 8.5,14.5C 8.16667,17.1667 7.83333,17.1667 7.5,14.5 Z"/></g>
<g><path style="opacity:0.008" fill="#f36681" d="M 18.5,17.5 C 18.369,16.7611 18.5357,16.0944 19,15.5C 39.7604,16.3273 60.5937,16.8273 81.5,17C 60.5026,17.5 39.5026,17.6666 18.5,17.5 Z"/></g>
<g><path style="opacity:0.012" fill="#f15b78" d="M 8.5,17.5 C 9.83333,18.1667 9.83333,18.1667 8.5,17.5 Z"/></g>
<g><path style="opacity:0.008" fill="#f05b78" d="M 99.5,17.5 C 99.5,17.8333 99.5,18.1667 99.5,18.5C 98.8299,18.0187 98.8299,17.6853 99.5,17.5 Z"/></g>
<g><path style="opacity:0.01" fill="#f25b79" d="M 11.5,21.5 C 11.631,22.2389 11.4643,22.9056 11,23.5C 10.3083,22.5632 10.475,21.8966 11.5,21.5 Z"/></g>
<g><path style="opacity:0.01" fill="#f2607c" d="M 52.5,30.5 C 52.5,29.5 52.5,28.5 52.5,27.5C 48.8183,27.6653 45.1516,27.4986 41.5,27C 45.4862,26.5012 49.4862,26.3345 53.5,26.5C 53.7678,28.099 53.4345,29.4324 52.5,30.5 Z"/></g>
<g><path style="opacity:0.015" fill="#f67188" d="M 71.5,30.5 C 71.1667,30.5 70.8333,30.5 70.5,30.5C 70.5,29.5 70.5,28.5 70.5,27.5C 67.1501,27.335 63.8168,27.5017 60.5,28C 62.0581,28.21 63.3915,28.71 64.5,29.5C 62.8333,29.5 61.1667,29.5 59.5,29.5C 59.5,28.5 59.5,27.5 59.5,26.5C 63.5,26.5 67.5,26.5 71.5,26.5C 71.5,27.8333 71.5,29.1667 71.5,30.5 Z"/></g>
<g><path style="opacity:0.009" fill="#f25b79" d="M 89.5,29.5 C 86.1691,27.7024 82.5025,27.0357 78.5,27.5C 77.9969,32.5 77.6636,32.1667 77.5,26.5C 81.5,26.5 85.5,26.5 89.5,26.5C 89.5,27.5 89.5,28.5 89.5,29.5 Z"/></g>
<g><path style="opacity:0.01" fill="#f25b79" d="M 98.5,28.5 C 98.8333,28.5 99.1667,28.5 99.5,28.5C 99.5,29.5 99.5,30.5 99.5,31.5C 99.1667,31.5 98.8333,31.5 98.5,31.5C 98.5,30.5 98.5,29.5 98.5,28.5 Z"/></g>
<g><path style="opacity:0.012" fill="#f25c7a" d="M 14.5,28.5 C 14.631,29.2389 14.4643,29.9056 14,30.5C 13.3083,29.5632 13.475,28.8966 14.5,28.5 Z"/></g>
<g><path style="opacity:0.952" fill="#fec5d0" d="M 52.5,30.5 C 52.8333,31.5 53.5,32.1667 54.5,32.5C 56.2916,33.4728 57.625,32.8061 58.5,30.5C 60.5,30.5 62.5,30.5 64.5,30.5C 64.8417,31.3382 65.5084,31.6716 66.5,31.5C 66.3284,32.4916 66.6618,33.1583 67.5,33.5C 67.4326,34.9587 67.7659,36.2921 68.5,37.5C 68.5,38.5 68.5,39.5 68.5,40.5C 67.3263,41.5137 66.6596,42.847 66.5,44.5C 64.7356,45.326 63.4023,46.6593 62.5,48.5C 61.5,48.8333 60.8333,49.5 60.5,50.5C 59.8333,50.8333 59.1667,51.1667 58.5,51.5C 57.2905,51.9321 56.2905,52.5987 55.5,53.5C 55.1667,53.5 54.8333,53.5 54.5,53.5C 54.1583,52.6618 53.4916,52.3284 52.5,52.5C 52.1667,51.5 51.5,50.8333 50.5,50.5C 50.1667,49.5 49.5,48.8333 48.5,48.5C 47.5,46.8333 46.1667,45.5 44.5,44.5C 44.6716,43.5084 44.3382,42.8417 43.5,42.5C 42.3224,39.5227 42.3224,36.5227 43.5,33.5C 44.5,33.1667 45.1667,32.5 45.5,31.5C 47.7638,30.7814 50.0971,30.448 52.5,30.5 Z"/></g>
<g><path style="opacity:0.01" fill="#f15c79" d="M 97.5,31.5 C 97.8333,31.5 98.1667,31.5 98.5,31.5C 98.1667,34.1667 97.8333,34.1667 97.5,31.5 Z"/></g>
<g><path style="opacity:0.012" fill="#f25c79" d="M 16.5,33.5 C 16.631,34.2389 16.4643,34.9056 16,35.5C 15.3083,34.5632 15.475,33.8966 16.5,33.5 Z"/></g>
<g><path style="opacity:0.01" fill="#f15b78" d="M 96.5,34.5 C 97.525,34.8966 97.6917,35.5632 97,36.5C 96.5357,35.9056 96.369,35.2389 96.5,34.5 Z"/></g>
<g><path style="opacity:0.008" fill="#f25b78" d="M 16.5,36.5 C 17.525,36.8966 17.6917,37.5632 17,38.5C 16.5357,37.9056 16.369,37.2389 16.5,36.5 Z"/></g>
<g><path style="opacity:0.012" fill="#f25a79" d="M 95.5,37.5 C 96.525,37.8966 96.6917,38.5632 96,39.5C 95.5357,38.9056 95.369,38.2389 95.5,37.5 Z"/></g>
<g><path style="opacity:0.004" fill="#f35b79" d="M 85.5,41.5 C 85.1667,41.5 84.8333,41.5 84.5,41.5C 82.3647,39.631 79.6981,38.9644 76.5,39.5C 75.9553,43.1716 75.6219,42.8383 75.5,38.5C 78.8333,38.5 82.1667,38.5 85.5,38.5C 85.5,39.5 85.5,40.5 85.5,41.5 Z"/></g>
<g><path style="opacity:0.01" fill="#f25b78" d="M 94.5,40.5 C 95.525,40.8966 95.6917,41.5632 95,42.5C 94.5357,41.9056 94.369,41.2389 94.5,40.5 Z"/></g>
<g><path style="opacity:0.012" fill="#f25c7a" d="M 19.5,40.5 C 19.631,41.2389 19.4643,41.9056 19,42.5C 18.3083,41.5632 18.475,40.8966 19.5,40.5 Z"/></g>
<g><path style="opacity:0.004" fill="#f15b7b" d="M 29.5,41.5 C 32.675,42.4167 35.675,42.75 38.5,42.5C 35.5719,43.4841 32.5719,43.8174 29.5,43.5C 29.5,42.8333 29.5,42.1667 29.5,41.5 Z"/></g>
<g><path style="opacity:0.01" fill="#f25b79" d="M 93.5,43.5 C 94.525,43.8966 94.6917,44.5632 94,45.5C 93.5357,44.9056 93.369,44.2389 93.5,43.5 Z"/></g>
<g><path style="opacity:0.008" fill="#f25b7a" d="M 21.5,45.5 C 21.631,46.2389 21.4643,46.9056 21,47.5C 20.3083,46.5632 20.475,45.8966 21.5,45.5 Z"/></g>
<g><path style="opacity:0.01" fill="#f25b79" d="M 92.5,46.5 C 93.525,46.8966 93.6917,47.5632 93,48.5C 92.5357,47.9056 92.369,47.2389 92.5,46.5 Z"/></g>
<g><path style="opacity:0.004" fill="#f35a79" d="M 21.5,48.5 C 22.525,48.8966 22.6917,49.5632 22,50.5C 21.5357,49.9056 21.369,49.2389 21.5,48.5 Z"/></g>
<g><path style="opacity:0.011" fill="#f25b79" d="M 66.5,49.5 C 67.4511,50.9187 67.7845,52.5853 67.5,54.5C 65.1432,54.6633 62.8098,54.4966 60.5,54C 62.4727,53.5045 64.4727,53.3379 66.5,53.5C 66.5,52.1667 66.5,50.8333 66.5,49.5 Z"/></g>
<g><path style="opacity:0.01" fill="#f25b79" d="M 91.5,49.5 C 92.525,49.8966 92.6917,50.5632 92,51.5C 91.5357,50.9056 91.369,50.2389 91.5,49.5 Z"/></g>
<g><path style="opacity:0.004" fill="#fdb1bf" d="M 60.5,50.5 C 61.1667,50.5 61.8333,50.5 62.5,50.5C 61.4523,52.9327 60.7856,52.9327 60.5,50.5 Z"/></g>
<g><path style="opacity:0.008" fill="#f25c79" d="M 24.5,52.5 C 24.631,53.2389 24.4643,53.9056 24,54.5C 23.3083,53.5632 23.475,52.8966 24.5,52.5 Z"/></g>
<g><path style="opacity:0.019" fill="#f25b79" d="M 73.5,51.5 C 75.4898,52.999 77.8232,53.8324 80.5,54C 78.1902,54.4966 75.8568,54.6633 73.5,54.5C 73.5,53.5 73.5,52.5 73.5,51.5 Z"/></g>
<g><path style="opacity:0.008" fill="#f25b78" d="M 90.5,52.5 C 91.525,52.8966 91.6917,53.5632 91,54.5C 90.5357,53.9056 90.369,53.2389 90.5,52.5 Z"/></g>
<g><path style="opacity:0.01" fill="#f25a79" d="M 89.5,57.5 C 89.369,56.7611 89.5357,56.0944 90,55.5C 90.6917,56.4368 90.525,57.1034 89.5,57.5 Z"/></g>
<g><path style="opacity:0.01" fill="#f15b78" d="M 26.5,57.5 C 26.631,58.2389 26.4643,58.9056 26,59.5C 25.3083,58.5632 25.475,57.8966 26.5,57.5 Z"/></g>
<g><path style="opacity:0.012" fill="#f25c79" d="M 88.5,57.5 C 88.8333,57.5 89.1667,57.5 89.5,57.5C 89.1667,60.1667 88.8333,60.1667 88.5,57.5 Z"/></g>
<g><path style="opacity:0.012" fill="#f15b78" d="M 26.5,60.5 C 27.8333,61.1667 27.8333,61.1667 26.5,60.5 Z"/></g>
<g><path style="opacity:0.008" fill="#f25a78" d="M 87.5,60.5 C 88.8333,61.1667 88.8333,61.1667 87.5,60.5 Z"/></g>
<g><path style="opacity:0.008" fill="#f25a78" d="M 86.5,61.5 C 86.8333,61.5 87.1667,61.5 87.5,61.5C 87.3147,62.1701 86.9813,62.1701 86.5,61.5 Z"/></g>
<g><path style="opacity:0.004" fill="#f15a78" d="M 85.5,62.5 C 85.8333,62.5 86.1667,62.5 86.5,62.5C 86.3147,63.1701 85.9813,63.1701 85.5,62.5 Z"/></g>
<g><path style="opacity:0.011" fill="#f25b79" d="M 57.5,64.5 C 66.3238,63.3427 75.3238,63.176 84.5,64C 75.5062,64.4998 66.5062,64.6664 57.5,64.5 Z"/></g>
<g><path style="opacity:0.01" fill="#f15c79" d="M 29.5,64.5 C 29.631,65.2389 29.4643,65.9056 29,66.5C 28.3083,65.5632 28.475,64.8966 29.5,64.5 Z"/></g>
<g><path style="opacity:0.008" fill="#f25b79" d="M 38.5,65.5 C 38.56,64.9569 38.8933,64.6236 39.5,64.5C 40.3857,65.325 40.719,66.325 40.5,67.5C 40.1667,67.5 39.8333,67.5 39.5,67.5C 39.6716,66.5084 39.3382,65.8417 38.5,65.5 Z"/></g>
<g><path style="opacity:0.008" fill="#f35a79" d="M 29.5,67.5 C 30.525,67.8966 30.6917,68.5632 30,69.5C 29.5357,68.9056 29.369,68.2389 29.5,67.5 Z"/></g>
<g><path style="opacity:0.008" fill="#f25b78" d="M 40.5,67.5 C 41.525,67.8966 41.6917,68.5632 41,69.5C 40.5357,68.9056 40.369,68.2389 40.5,67.5 Z"/></g>
<g><path style="opacity:0.012" fill="#f15c79" d="M 41.5,71.5 C 48.3209,70.3454 55.3209,70.1787 62.5,71C 55.5079,71.4996 48.5079,71.6663 41.5,71.5 Z"/></g>
<g><path style="opacity:0.008" fill="#f15c79" d="M 32.5,71.5 C 32.631,72.2389 32.4643,72.9056 32,73.5C 31.3083,72.5632 31.475,71.8966 32.5,71.5 Z"/></g>
<g><path style="opacity:0.007" fill="#f25b78" d="M 80.5,72.5 C 81.6225,74.2884 81.7891,76.2884 81,78.5C 80.5045,76.5273 80.3379,74.5273 80.5,72.5 Z"/></g>
<g><path style="opacity:0.008" fill="#f15c79" d="M 34.5,76.5 C 33.8333,77.1667 33.8333,77.1667 34.5,76.5 Z"/></g>
<g><path style="opacity:0.004" fill="#f25c77" d="M 34.5,78.5 C 35.8333,79.1667 35.8333,79.1667 34.5,78.5 Z"/></g>
<g><path style="opacity:0.008" fill="#f05d78" d="M 37.5,79.5 C 37.5,79.8333 37.5,80.1667 37.5,80.5C 36.8299,80.0187 36.8299,79.6853 37.5,79.5 Z"/></g>
<g><path style="opacity:0.013" fill="#f25b79" d="M 37.5,80.5 C 39.4147,80.2155 41.0813,80.5489 42.5,81.5C 40.5227,82.8715 38.8561,82.5382 37.5,80.5 Z"/></g>
<g><path style="opacity:0.86" fill="#f25b79" d="M 50.5,81.5 C 51.1667,82.8333 52.1667,83.8333 53.5,84.5C 53.5987,87.2372 53.2653,89.9039 52.5,92.5C 51.8333,92.5 51.5,92.8333 51.5,93.5C 50.8333,93.5 50.5,93.8333 50.5,94.5C 49.209,94.2627 48.209,94.596 47.5,95.5C 46.5,95.5 45.5,95.5 44.5,95.5C 40.0531,93.2389 38.3864,89.5722 39.5,84.5C 40.8333,83.8333 41.8333,82.8333 42.5,81.5C 45.1667,80.1667 47.8333,80.1667 50.5,81.5 Z"/></g>
<g><path style="opacity:0.011" fill="#f25b79" d="M 50.5,81.5 C 55.1667,80.1667 59.8333,80.1667 64.5,81.5C 63.8333,81.5 63.5,81.8333 63.5,82.5C 59.2648,81.564 54.9315,81.2307 50.5,81.5 Z"/></g>
<g><path style="opacity:0.87" fill="#f25b79" d="M 73.5,81.5 C 73.5,82.1667 73.8333,82.5 74.5,82.5C 74.9321,83.7095 75.5987,84.7095 76.5,85.5C 76.5,86.8333 76.5,88.1667 76.5,89.5C 75.6618,89.8417 75.3284,90.5084 75.5,91.5C 74.8333,91.5 74.5,91.8333 74.5,92.5C 73.8333,92.5 73.5,92.8333 73.5,93.5C 72.8333,93.5 72.5,93.8333 72.5,94.5C 70.1667,94.5 67.8333,94.5 65.5,94.5C 64.8333,93.1667 63.8333,92.1667 62.5,91.5C 61.8505,89.5648 61.5172,87.5648 61.5,85.5C 62.4013,84.7095 63.0679,83.7095 63.5,82.5C 64.1667,82.5 64.5,82.1667 64.5,81.5C 67.5,80.1667 70.5,80.1667 73.5,81.5 Z"/></g>
<g><path style="opacity:0.004" fill="#f35b7a" d="M 73.5,81.5 C 74.6009,80.4017 75.9343,80.235 77.5,81C 76.4734,81.5133 75.4734,82.0133 74.5,82.5C 73.8333,82.5 73.5,82.1667 73.5,81.5 Z"/></g>
<g><path style="opacity:0.008" fill="#f15b78" d="M 39.5,84.5 C 38.8333,83.1667 38.8333,83.1667 39.5,84.5 Z"/></g>
<g><path style="opacity:0.012" fill="#f25c79" d="M 54.5,84.5 C 53.8333,83.1667 53.8333,83.1667 54.5,84.5 Z"/></g>
<g><path style="opacity:0.008" fill="#f25b78" d="M 76.5,85.5 C 76.369,84.7611 76.5357,84.0944 77,83.5C 77.6917,84.4368 77.525,85.1034 76.5,85.5 Z"/></g>
<g><path style="opacity:0.011" fill="#f25b79" d="M 38.5,84.5 C 38.6621,86.5273 38.4955,88.5273 38,90.5C 37.2109,88.2884 37.3775,86.2884 38.5,84.5 Z"/></g>
<g><path style="opacity:0.011" fill="#f25b79" d="M 54.5,84.5 C 55.6225,86.2884 55.7891,88.2884 55,90.5C 54.5045,88.5273 54.3379,86.5273 54.5,84.5 Z"/></g>
<g><path style="opacity:0.004" fill="#f25c7b" d="M 61.5,85.5 C 61.1667,85.5 60.8333,85.5 60.5,85.5C 60.8333,82.8333 61.1667,82.8333 61.5,85.5 Z"/></g>
<g><path style="opacity:0.006" fill="#f25b79" d="M 60.5,85.5 C 60.6567,86.8734 60.49,88.2068 60,89.5C 59.235,87.9343 59.4017,86.6009 60.5,85.5 Z"/></g>
<g><path style="opacity:0.004" fill="#f35a79" d="M 77.5,86.5 C 78.525,86.8966 78.6917,87.5632 78,88.5C 77.5357,87.9056 77.369,87.2389 77.5,86.5 Z"/></g>
<g><path style="opacity:0.012" fill="#f25c79" d="M 61.5,91.5 C 60.8333,90.1667 60.8333,90.1667 61.5,91.5 Z"/></g>
<g><path style="opacity:0.008" fill="#f35b79" d="M 76.5,89.5 C 77.8333,90.1667 77.8333,90.8333 76.5,91.5C 76.5,90.8333 76.5,90.1667 76.5,89.5 Z"/></g>
<g><path style="opacity:0.008" fill="#f15c79" d="M 53.5,91.5 C 54.8333,92.1667 54.8333,92.1667 53.5,91.5 Z"/></g>
<g><path style="opacity:0.008" fill="#f25d7a" d="M 61.5,91.5 C 61.8333,91.5 62.1667,91.5 62.5,91.5C 62.3147,92.1701 61.9813,92.1701 61.5,91.5 Z"/></g>
<g><path style="opacity:0.012" fill="#f15c78" d="M 75.5,91.5 C 75.8333,91.5 76.1667,91.5 76.5,91.5C 76.3147,92.1701 75.9813,92.1701 75.5,91.5 Z"/></g>
<g><path style="opacity:0.008" fill="#f15b78" d="M 52.5,92.5 C 52.8333,92.5 53.1667,92.5 53.5,92.5C 53.3147,93.1701 52.9813,93.1701 52.5,92.5 Z"/></g>
<g><path style="opacity:0.008" fill="#ef5c78" d="M 74.5,92.5 C 74.8333,92.5 75.1667,92.5 75.5,92.5C 75.3147,93.1701 74.9813,93.1701 74.5,92.5 Z"/></g>
<g><path style="opacity:0.012" fill="#f15b79" d="M 51.5,93.5 C 51.8333,93.5 52.1667,93.5 52.5,93.5C 52.3147,94.1701 51.9813,94.1701 51.5,93.5 Z"/></g>
<g><path style="opacity:0.008" fill="#f05c79" d="M 73.5,93.5 C 73.8333,93.5 74.1667,93.5 74.5,93.5C 74.3147,94.1701 73.9813,94.1701 73.5,93.5 Z"/></g>
<g><path style="opacity:0.008" fill="#f15b78" d="M 50.5,94.5 C 50.8333,94.5 51.1667,94.5 51.5,94.5C 51.3147,95.1701 50.9813,95.1701 50.5,94.5 Z"/></g>
<g><path style="opacity:0.008" fill="#f15b77" d="M 65.5,94.5 C 65.5,94.8333 65.5,95.1667 65.5,95.5C 64.8299,95.0187 64.8299,94.6853 65.5,94.5 Z"/></g>
<g><path style="opacity:0.008" fill="#f25c79" d="M 72.5,94.5 C 72.8333,94.5 73.1667,94.5 73.5,94.5C 73.3147,95.1701 72.9813,95.1701 72.5,94.5 Z"/></g>
<g><path style="opacity:0.008" fill="#f25b79" d="M 44.5,95.5 C 44.1034,96.525 43.4368,96.6917 42.5,96C 43.0944,95.5357 43.7611,95.369 44.5,95.5 Z"/></g>
<g><path style="opacity:0.008" fill="#f15c79" d="M 47.5,95.5 C 48.2389,95.369 48.9056,95.5357 49.5,96C 48.5632,96.6917 47.8966,96.525 47.5,95.5 Z"/></g>
<g><path style="opacity:0.01" fill="#f15c79" d="M 65.5,95.5 C 66.552,95.3505 67.552,95.5172 68.5,96C 67.2506,96.7401 66.2506,96.5735 65.5,95.5 Z"/></g>
<g><path style="opacity:0.009" fill="#f15b79" d="M 72.5,95.5 C 71.7494,96.5735 70.7494,96.7401 69.5,96C 70.448,95.5172 71.448,95.3505 72.5,95.5 Z"/></g>
</svg>
